<?xml version="1.0" encoding="us-ascii" standalone="no"?><svg xmlns="http://www.w3.org/2000/svg" xmlns:xlink="http://www.w3.org/1999/xlink" contentStyleType="text/css" height="574px" preserveAspectRatio="none" style="width:709px;height:574px;" version="1.1" viewBox="0 0 709 574" width="709px" zoomAndPan="magnify"><defs/><g><rect fill="none" height="59.2656" style="stroke:#000000;stroke-width:1.5;" width="220" x="315" y="359.3594"/><line style="stroke:#181818;stroke-width:0.5;stroke-dasharray:5.0,5.0;" x1="87" x2="87" y1="81.2969" y2="493.8906"/><line style="stroke:#181818;stroke-width:0.5;stroke-dasharray:5.0,5.0;" x1="364" x2="364" y1="81.2969" y2="493.8906"/><line style="stroke:#181818;stroke-width:0.5;stroke-dasharray:5.0,5.0;" x1="668" x2="668" y1="81.2969" y2="493.8906"/><text fill="#000000" font-family="sans-serif" font-size="14" lengthAdjust="spacing" textLength="158" x="5" y="77.9951">Creador de Contenido</text><ellipse cx="87" cy="13.5" fill="#E2E2F0" rx="8" ry="8" style="stroke:#181818;stroke-width:0.5;"/><path d="M87,21.5 L87,48.5 M74,29.5 L100,29.5 M87,48.5 L74,63.5 M87,48.5 L100,63.5 " fill="none" style="stroke:#181818;stroke-width:0.5;"/><text fill="#000000" font-family="sans-serif" font-size="14" lengthAdjust="spacing" textLength="158" x="5" y="505.8857">Creador de Contenido</text><ellipse cx="87" cy="517.6875" fill="#E2E2F0" rx="8" ry="8" style="stroke:#181818;stroke-width:0.5;"/><path d="M87,525.6875 L87,552.6875 M74,533.6875 L100,533.6875 M87,552.6875 L74,567.6875 M87,552.6875 L100,567.6875 " fill="none" style="stroke:#181818;stroke-width:0.5;"/><rect fill="#E2E2F0" height="30.2969" rx="2.5" ry="2.5" style="stroke:#181818;stroke-width:0.5;" width="78" x="325" y="50"/><text fill="#000000" font-family="sans-serif" font-size="14" lengthAdjust="spacing" textLength="54" x="338" y="69.9951">PaySub</text><rect fill="#E2E2F0" height="30.2969" rx="2.5" ry="2.5" style="stroke:#181818;stroke-width:0.5;" width="78" x="325" y="492.8906"/><text fill="#000000" font-family="sans-serif" font-size="14" lengthAdjust="spacing" textLength="54" x="338" y="512.8857">PaySub</text><text fill="#000000" font-family="sans-serif" font-size="14" lengthAdjust="spacing" textLength="52" x="639" y="77.9951">Cliente</text><ellipse cx="668" cy="13.5" fill="#E2E2F0" rx="8" ry="8" style="stroke:#181818;stroke-width:0.5;"/><path d="M668,21.5 L668,48.5 M655,29.5 L681,29.5 M668,48.5 L655,63.5 M668,48.5 L681,63.5 " fill="none" style="stroke:#181818;stroke-width:0.5;"/><text fill="#000000" font-family="sans-serif" font-size="14" lengthAdjust="spacing" textLength="52" x="639" y="505.8857">Cliente</text><ellipse cx="668" cy="517.6875" fill="#E2E2F0" rx="8" ry="8" style="stroke:#181818;stroke-width:0.5;"/><path d="M668,525.6875 L668,552.6875 M655,533.6875 L681,533.6875 M668,552.6875 L655,567.6875 M668,552.6875 L681,567.6875 " fill="none" style="stroke:#181818;stroke-width:0.5;"/><rect fill="#EEEEEE" height="3" style="stroke:#EEEEEE;stroke-width:1.0;" width="702" x="0" y="111.8633"/><line style="stroke:#000000;stroke-width:1.0;" x1="0" x2="702" y1="111.8633" y2="111.8633"/><line style="stroke:#000000;stroke-width:1.0;" x1="0" x2="702" y1="114.8633" y2="114.8633"/><rect fill="#EEEEEE" height="23.1328" style="stroke:#000000;stroke-width:2.0;" width="262" x="220" y="101.2969"/><text fill="#000000" font-family="sans-serif" font-size="13" font-weight="bold" lengthAdjust="spacing" textLength="243" x="226" y="117.3638">Flujo de Creaci&#243;n de Suscripci&#243;n</text><polygon fill="#181818" points="352,151.5625,362,155.5625,352,159.5625,356,155.5625" style="stroke:#181818;stroke-width:1.0;"/><line style="stroke:#181818;stroke-width:1.0;" x1="87" x2="358" y1="155.5625" y2="155.5625"/><text fill="#000000" font-family="sans-serif" font-size="13" lengthAdjust="spacing" textLength="188" x="94" y="150.4966">Crear Paquete de Suscripci&#243;n</text><polygon fill="#181818" points="352,180.6953,362,184.6953,352,188.6953,356,184.6953" style="stroke:#181818;stroke-width:1.0;"/><line style="stroke:#181818;stroke-width:1.0;" x1="87" x2="358" y1="184.6953" y2="184.6953"/><text fill="#000000" font-family="sans-serif" font-size="13" lengthAdjust="spacing" textLength="177" x="94" y="179.6294">Generar Enlace Compartido</text><polygon fill="#181818" points="656,209.8281,666,213.8281,656,217.8281,660,213.8281" style="stroke:#181818;stroke-width:1.0;"/><line style="stroke:#181818;stroke-width:1.0;" x1="87" x2="662" y1="213.8281" y2="213.8281"/><text fill="#000000" font-family="sans-serif" font-size="13" lengthAdjust="spacing" textLength="110" x="94" y="208.7622">Compartir Enlace</text><rect fill="#EEEEEE" height="3" style="stroke:#EEEEEE;stroke-width:1.0;" width="702" x="0" y="242.3945"/><line style="stroke:#000000;stroke-width:1.0;" x1="0" x2="702" y1="242.3945" y2="242.3945"/><line style="stroke:#000000;stroke-width:1.0;" x1="0" x2="702" y1="245.3945" y2="245.3945"/><rect fill="#EEEEEE" height="23.1328" style="stroke:#000000;stroke-width:2.0;" width="279" x="211.5" y="231.8281"/><text fill="#000000" font-family="sans-serif" font-size="13" font-weight="bold" lengthAdjust="spacing" textLength="260" x="217.5" y="247.895">Proceso de Suscripci&#243;n del Cliente</text><polygon fill="#181818" points="375,282.0938,365,286.0938,375,290.0938,371,286.0938" style="stroke:#181818;stroke-width:1.0;"/><line style="stroke:#181818;stroke-width:1.0;" x1="369" x2="667" y1="286.0938" y2="286.0938"/><text fill="#000000" font-family="sans-serif" font-size="13" lengthAdjust="spacing" textLength="131" x="381" y="281.0278">Haz Clic en el Enlace</text><polygon fill="#181818" points="656,311.2266,666,315.2266,656,319.2266,660,315.2266" style="stroke:#181818;stroke-width:1.0;"/><line style="stroke:#181818;stroke-width:1.0;" x1="364" x2="662" y1="315.2266" y2="315.2266"/><text fill="#000000" font-family="sans-serif" font-size="13" lengthAdjust="spacing" textLength="280" x="371" y="310.1606">Mostrar Detalles del Paquete de Suscripci&#243;n</text><polygon fill="#181818" points="375,340.3594,365,344.3594,375,348.3594,371,344.3594" style="stroke:#181818;stroke-width:1.0;"/><line style="stroke:#181818;stroke-width:1.0;" x1="369" x2="667" y1="344.3594" y2="344.3594"/><text fill="#000000" font-family="sans-serif" font-size="13" lengthAdjust="spacing" textLength="143" x="381" y="339.2935">Haz Clic en Suscribirse</text><path d="M315,359.3594 L393,359.3594 L393,366.4922 L383,376.4922 L315,376.4922 L315,359.3594 " fill="#EEEEEE" style="stroke:#000000;stroke-width:1.5;"/><rect fill="none" height="59.2656" style="stroke:#000000;stroke-width:1.5;" width="220" x="315" y="359.3594"/><text fill="#000000" font-family="sans-serif" font-size="13" font-weight="bold" lengthAdjust="spacing" textLength="33" x="330" y="372.4263">Ciclo</text><text fill="#000000" font-family="sans-serif" font-size="11" font-weight="bold" lengthAdjust="spacing" textLength="112" x="408" y="371.5698">Pago Recurrente</text><line style="stroke:#181818;stroke-width:1.0;" x1="364" x2="406" y1="397.625" y2="397.625"/><line style="stroke:#181818;stroke-width:1.0;" x1="406" x2="406" y1="397.625" y2="410.625"/><line style="stroke:#181818;stroke-width:1.0;" x1="365" x2="406" y1="410.625" y2="410.625"/><polygon fill="#181818" points="375,406.625,365,410.625,375,414.625,371,410.625" style="stroke:#181818;stroke-width:1.0;"/><text fill="#000000" font-family="sans-serif" font-size="13" lengthAdjust="spacing" textLength="92" x="371" y="392.5591">Procesar Pago</text><polygon fill="#181818" points="98,442.7578,88,446.7578,98,450.7578,94,446.7578" style="stroke:#181818;stroke-width:1.0;"/><line style="stroke:#181818;stroke-width:1.0;" x1="92" x2="363" y1="446.7578" y2="446.7578"/><text fill="#000000" font-family="sans-serif" font-size="13" lengthAdjust="spacing" textLength="253" x="104" y="441.6919">A&#241;adir Cliente a la Lista de Suscriptores</text><polygon fill="#181818" points="656,471.8906,666,475.8906,656,479.8906,660,475.8906" style="stroke:#181818;stroke-width:1.0;"/><line style="stroke:#181818;stroke-width:1.0;" x1="364" x2="662" y1="475.8906" y2="475.8906"/><text fill="#000000" font-family="sans-serif" font-size="13" lengthAdjust="spacing" textLength="123" x="371" y="470.8247">Suscripci&#243;n Exitosa</text><!--SRC=[XL1TIWCn47xFAOPzzm8BAqYj-g1Gx0ccoL0YQMRD923UIZn2BsQItTL6hUxJ3ld-KKSEqAq2eSa_Xc35FfAtXZj0cQzOtZDGZHYYrNP47w7RffsmjzWfd5MSpLYQY4aY7oWeDGnmuz8JL_6ie-tntPTZcqG7EqxtCAZM2oukON7eAp701fyJHVfE_fDvIvv2vgwzGrtg7Me9mx-mbj3z9spXrHgRm9g4VsGtv63kNdlCAcsEEtmj80ta8UDdsUMzTNzWYINpDKLqZgGwd2t_hzq4tzaWkOTZ7hFMdk6HT0gXf5QGlzCeNpfJvxhzdXLvezhCpOOzN1tVqEJLbZaG7CAzbOWdkJEIv4prPjZrYuqi-040]--></g></svg>